<?xml version="1.0" standalone="no"?>
<!DOCTYPE svg PUBLIC "-//W3C//DTD SVG 20010904//EN"
 "http://www.w3.org/TR/2001/REC-SVG-20010904/DTD/svg10.dtd">
<svg version="1.0" xmlns="http://www.w3.org/2000/svg"
 width="1080.000000pt" height="1080.000000pt" viewBox="0 0 1080.000000 1080.000000"
 preserveAspectRatio="xMidYMid meet">

<g transform="translate(0.000000,1080.000000) scale(0.100000,-0.100000)"
fill="#000000" stroke="none">
<path d="M4175 10300 c-49 -10 -126 -43 -146 -61 -8 -8 -27 -21 -43 -29 -16
-8 -60 -44 -97 -80 -37 -36 -85 -79 -106 -96 -65 -53 -237 -154 -262 -154 -20
0 -184 -81 -240 -119 -33 -23 -63 -41 -66 -41 -32 0 -435 -357 -435 -385 0 -7
-12 -20 -26 -30 -14 -9 -35 -35 -45 -58 -26 -54 -59 -111 -81 -137 -10 -11
-18 -25 -18 -30 0 -6 -4 -10 -10 -10 -5 0 -10 -6 -10 -14 0 -7 -7 -19 -15 -26
-9 -7 -14 -19 -11 -27 3 -8 1 -11 -4 -8 -6 3 -10 1 -10 -4 0 -8 832 -11 2786
-11 l2785 0 -20 28 c-36 49 -158 169 -290 282 -36 31 -175 164 -308 296 -133
131 -254 249 -270 262 -32 26 -180 113 -197 116 -6 1 -21 7 -33 14 -12 7 -27
12 -33 12 -21 0 -193 91 -220 117 -8 8 -37 28 -65 46 -170 110 -277 142 -435
131 -46 -3 -87 -7 -91 -9 -18 -12 -285 -64 -349 -69 -114 -8 -1015 -10 -1028
-2 -7 4 -35 9 -64 10 -65 5 -185 31 -255 57 -29 10 -65 21 -80 24 -57 11 -169
14 -208 5z"/>
<path d="M5285 8754 c-135 -15 -339 -47 -431 -69 -109 -26 -144 -37 -244 -75
-30 -12 -71 -26 -90 -32 -41 -12 -271 -129 -317 -161 -17 -12 -55 -35 -83 -52
-29 -16 -62 -40 -74 -51 -13 -12 -33 -27 -46 -34 -96 -51 -360 -315 -493 -492
-48 -64 -87 -119 -87 -123 0 -4 -8 -19 -19 -33 -31 -44 -69 -113 -102 -182
-17 -36 -44 -92 -60 -125 -16 -33 -35 -78 -43 -100 -101 -280 -137 -444 -157
-723 -10 -132 -9 -185 5 -337 23 -249 61 -427 136 -635 37 -103 182 -401 204
-419 9 -8 16 -17 16 -22 0 -21 147 -223 224 -309 238 -265 485 -450 793 -596
65 -31 144 -64 175 -74 32 -11 67 -24 78 -30 49 -26 357 -93 505 -111 113 -13
416 -13 515 0 229 31 315 50 530 118 48 15 205 79 230 93 8 5 64 34 124 65 60
31 121 65 135 74 14 10 44 30 66 45 22 14 60 42 85 61 25 19 62 46 82 60 20
14 104 92 185 174 143 144 250 276 340 418 65 103 194 367 226 463 16 47 32
94 37 105 14 36 43 150 59 235 5 30 15 81 21 114 31 155 29 521 -4 736 -16
109 -71 338 -93 390 -8 19 -24 62 -35 95 -23 67 -166 362 -179 371 -5 3 -18
23 -29 44 -21 40 -130 192 -177 245 -14 17 -54 64 -89 105 -35 41 -96 103
-136 137 -40 33 -82 70 -93 80 -48 45 -197 153 -275 200 -199 118 -398 207
-585 260 -49 14 -112 31 -140 39 -137 39 -546 73 -690 58z m459 -134 c196 -27
474 -107 643 -185 317 -146 622 -385 835 -656 62 -78 168 -234 168 -247 0 -5
7 -16 17 -23 39 -33 190 -385 224 -521 5 -21 14 -57 20 -80 6 -24 22 -104 36
-178 22 -118 26 -163 27 -360 1 -230 -13 -375 -50 -515 -9 -33 -20 -78 -25
-100 -39 -156 -141 -403 -216 -523 -18 -29 -33 -55 -33 -58 0 -20 -160 -232
-259 -345 -115 -131 -344 -326 -471 -401 -65 -39 -357 -183 -410 -203 -25 -10
-65 -25 -90 -36 -56 -23 -243 -68 -330 -80 -36 -5 -76 -11 -90 -14 -77 -19
-305 -27 -456 -16 -221 15 -403 51 -571 111 -43 15 -94 33 -113 40 -63 22
-272 124 -310 152 -21 14 -55 35 -76 46 -35 18 -143 94 -199 139 -112 91 -218
189 -267 247 -32 39 -70 83 -84 99 -13 15 -35 44 -48 65 -13 20 -33 46 -45 56
-11 11 -21 25 -21 31 0 7 -7 18 -15 25 -9 7 -25 33 -35 56 -11 24 -24 46 -30
49 -11 7 -134 249 -145 287 -4 12 -16 42 -26 65 -11 24 -35 96 -54 162 -79
276 -105 518 -85 801 12 184 23 254 55 382 55 216 89 307 181 487 68 134 146
268 162 281 4 3 20 23 35 45 15 22 39 56 53 75 34 49 311 327 354 356 19 13
53 38 75 55 62 47 76 57 135 93 30 19 73 45 95 59 36 22 114 61 185 91 14 5
32 15 40 21 8 6 33 17 55 24 22 7 68 24 102 37 35 14 82 29 105 34 24 4 68 16
98 24 76 22 217 46 325 56 111 11 420 4 529 -10z"/>
<path d="M5240 8524 c-218 -26 -361 -60 -558 -128 -87 -31 -343 -160 -427
-216 -33 -22 -73 -48 -89 -57 -52 -32 -230 -188 -311 -274 -93 -97 -195 -232
-283 -373 -34 -54 -62 -100 -62 -101 0 -2 -20 -46 -44 -97 -77 -164 -165 -453
-180 -593 -66 -588 36 -1066 320 -1501 190 -292 447 -541 721 -699 l61 -35
1055 0 c592 0 1057 4 1059 9 2 5 26 20 53 35 226 121 548 432 710 686 53 83
195 361 195 383 0 7 9 32 20 55 11 22 20 47 20 55 0 8 9 40 20 73 58 167 85
366 84 619 0 273 -37 487 -129 740 -39 108 -148 332 -200 412 -48 73 -144 203
-165 223 -8 8 -39 44 -69 80 -29 36 -78 87 -109 114 -32 26 -73 62 -92 80 -67
60 -125 104 -215 161 -87 57 -307 171 -383 199 -20 8 -68 26 -107 40 -64 25
-154 47 -370 91 -78 16 -440 29 -525 19z m217 -665 c18 -35 32 -72 32 -82 1
-10 8 -20 16 -23 8 -4 15 -12 15 -20 0 -11 -20 -14 -95 -14 -92 0 -95 1 -95
23 0 12 11 42 25 66 14 23 25 50 25 58 0 13 3 13 15 3 19 -16 34 -5 17 12 -16
16 -15 51 1 46 6 -2 26 -33 44 -69z m326 -201 c13 -16 15 -24 6 -34 -10 -12
-74 -14 -363 -12 -351 3 -351 3 -354 25 -7 48 12 51 366 46 314 -5 328 -6 345
-25z m84 -107 c15 -11 22 -26 23 -50 l0 -34 -122 6 c-66 4 -276 7 -465 7 -303
0 -344 2 -350 16 -7 20 14 60 38 70 11 5 207 7 436 5 368 -3 420 -5 440 -20z
m173 -180 c0 -33 -5 -42 -37 -64 l-38 -26 -550 6 -550 6 -32 25 c-26 19 -33
32 -33 58 l0 34 620 0 620 0 0 -39z m-2082 -102 l34 -24 1432 0 c1138 0 1435
3 1446 13 8 7 35 26 60 42 44 28 45 29 48 8 4 -21 -30 -99 -57 -130 -13 -17
-97 -18 -1500 -18 l-1487 0 -37 75 c-47 97 -49 116 -4 83 17 -13 47 -35 65
-49z m1542 -1310 c0 -1125 0 -1149 -19 -1159 -11 -5 -42 -10 -70 -10 -44 0
-51 3 -56 23 -3 12 -4 533 -3 1157 l3 1135 45 5 c25 3 57 3 73 1 l27 -3 0
-1149z m-226 1135 c11 -28 7 -2250 -4 -2279 -9 -24 -13 -26 -67 -23 l-58 3 -3
1158 -2 1157 64 0 c49 0 65 -4 70 -16z m444 -1136 c2 -1145 2 -1147 -18 -1158
-11 -6 -44 -10 -73 -8 l-52 3 -3 1158 -2 1158 72 -3 73 -3 3 -1147z m1046
1129 c8 -7 17 -24 21 -37 4 -14 35 -81 68 -150 33 -69 84 -177 112 -240 223
-488 238 -518 270 -526 36 -9 34 -25 -11 -130 -17 -38 -103 -127 -158 -161
-46 -30 -114 -57 -196 -80 -76 -21 -271 -12 -355 16 -174 57 -306 182 -330
311 -5 30 -3 36 17 45 22 10 56 67 107 185 13 30 62 134 109 230 47 96 95 198
108 225 12 28 53 112 89 188 67 137 67 137 102 137 19 0 40 -6 47 -13z m-2579
-20 c8 -13 31 -61 51 -108 20 -46 62 -138 95 -205 32 -66 59 -125 59 -130 0
-5 21 -49 46 -99 25 -49 57 -117 71 -150 66 -157 114 -245 138 -251 32 -8 35
-21 16 -80 -15 -44 -82 -143 -104 -152 -4 -2 -13 -9 -20 -16 -21 -20 -102 -72
-122 -78 -11 -4 -45 -16 -75 -28 -76 -30 -237 -38 -346 -17 -156 30 -296 123
-362 240 -46 82 -49 115 -12 129 15 6 47 64 105 193 15 33 64 137 109 230 46
94 94 195 107 225 37 84 140 293 151 308 18 21 76 15 93 -11z m1813 -2360 c6
-71 40 -67 -577 -67 -420 0 -560 3 -569 12 -16 16 -15 71 0 86 9 9 146 12 578
10 l565 -3 3 -38z m207 -147 l0 -45 -772 -3 -773 -2 0 43 c0 24 3 47 7 50 3 4
351 6 772 5 l766 -3 0 -45z"/>
<path d="M6689 6953 c-8 -21 -50 -112 -95 -203 -45 -91 -93 -192 -108 -225
-15 -33 -62 -131 -104 -217 -52 -108 -73 -161 -66 -168 7 -7 143 -9 400 -8
387 3 389 3 392 24 2 12 -20 70 -49 130 -28 60 -73 156 -99 214 -26 58 -71
155 -99 215 -29 61 -69 147 -89 192 -42 93 -61 103 -83 46z"/>
<path d="M6290 6051 c0 -63 81 -152 190 -210 90 -48 92 -26 5 59 -78 77 -94
110 -51 110 40 0 230 40 240 50 7 7 -60 10 -187 10 -186 0 -197 -1 -197 -19z"/>
<path d="M4100 6938 c-12 -29 -58 -127 -103 -218 -44 -91 -88 -183 -98 -205
-9 -22 -51 -110 -93 -195 -42 -86 -76 -165 -76 -178 l0 -22 394 0 c268 0 397
3 401 11 9 13 -3 43 -77 196 -32 67 -58 125 -58 128 0 4 -29 67 -65 140 -36
73 -65 136 -65 140 0 15 -110 232 -123 244 -12 9 -18 2 -37 -41z"/>
<path d="M4140 6055 c7 -8 27 -15 44 -15 52 -1 246 -36 256 -46 14 -14 -25
-65 -92 -121 -63 -54 -70 -66 -31 -57 78 20 196 114 235 187 34 67 34 67 -208
67 -191 0 -215 -2 -204 -15z"/>
<path d="M4736 3445 c-81 -29 -130 -85 -141 -163 -14 -105 33 -195 155 -297
183 -153 223 -239 160 -343 -31 -50 -75 -72 -145 -72 -37 0 -73 7 -95 18 -43
21 -80 75 -80 115 0 57 -22 12 -27 -55 -6 -84 3 -94 100 -114 204 -42 357 66
357 250 0 97 -49 165 -219 308 -93 77 -120 115 -127 174 -11 99 53 158 163
152 73 -5 109 -26 136 -81 9 -21 19 -37 22 -37 3 0 5 31 5 69 l0 69 -50 11
c-69 15 -167 13 -214 -4z"/>
<path d="M426 3434 c-3 -8 -6 -185 -7 -392 0 -374 -6 -473 -28 -480 -6 -2 -11
-8 -11 -13 0 -12 147 -12 155 1 3 6 2 10 -4 10 -6 0 -17 13 -26 30 -11 22 -15
63 -15 162 0 73 -5 212 -10 308 -5 96 -6 178 -1 183 11 11 29 -6 202 -198 205
-226 490 -516 503 -512 8 3 13 138 16 429 5 388 7 428 23 445 24 27 13 33 -58
33 -71 0 -82 -6 -58 -32 13 -15 18 -48 24 -156 13 -240 18 -518 9 -532 -6 -9
-24 4 -66 51 -33 34 -160 171 -283 303 -385 413 -356 384 -365 360z"/>
<path d="M5525 3286 c-6 -6 -56 -128 -113 -271 -144 -364 -170 -423 -196 -444
-29 -24 -17 -31 49 -31 64 0 75 6 54 27 -11 11 -4 49 21 108 4 11 18 47 32 80
l24 60 125 3 126 3 12 -28 c35 -75 91 -225 88 -236 -1 -8 20 -13 76 -15 42 -2
77 -1 77 1 0 2 -15 20 -33 39 -33 35 -57 87 -169 358 -59 143 -67 162 -106
250 -10 25 -22 55 -26 67 -9 30 -29 44 -41 29z m23 -198 c69 -179 80 -213 70
-225 -7 -9 -40 -13 -100 -13 -71 0 -90 3 -95 16 -6 16 4 52 56 193 17 46 31
86 31 88 0 17 21 -16 38 -59z"/>
<path d="M6839 3278 c-5 -9 -9 -33 -9 -54 l0 -37 24 26 c28 30 78 40 181 35
l70 -3 3 -323 c2 -275 0 -326 -13 -345 -8 -12 -15 -25 -15 -29 0 -5 36 -8 80
-8 44 0 80 2 80 4 0 2 -7 17 -15 32 -22 43 -22 646 0 664 11 9 41 11 103 8 93
-6 132 -19 132 -44 0 -9 6 -14 13 -12 14 5 22 77 10 89 -5 5 -150 10 -322 12
-285 2 -314 0 -322 -15z"/>
<path d="M8974 3287 c-6 -7 -23 -46 -39 -87 -15 -41 -36 -93 -45 -115 -10 -22
-57 -139 -106 -259 -48 -121 -98 -232 -111 -247 -13 -15 -23 -30 -23 -33 0 -3
29 -6 65 -6 64 0 75 6 54 27 -7 7 -6 24 5 59 25 84 57 168 68 182 7 8 47 12
133 12 l123 0 30 -72 c46 -110 68 -171 67 -188 0 -12 16 -16 78 -18 42 -2 77
0 77 3 0 4 -13 17 -28 30 -16 13 -41 52 -57 87 -15 35 -36 81 -45 103 -10 22
-44 103 -75 180 -31 77 -67 163 -80 190 -12 28 -28 66 -35 86 -19 53 -42 81
-56 66z m24 -199 c69 -179 80 -213 70 -225 -7 -9 -40 -13 -100 -13 -72 0 -90
3 -95 16 -5 14 21 111 47 169 5 11 16 41 26 67 9 26 20 46 24 43 4 -3 17 -28
28 -57z"/>
<path d="M1445 3280 c-3 -5 10 -24 29 -42 40 -38 227 -327 244 -377 17 -49 15
-250 -3 -281 -8 -14 -14 -28 -15 -32 0 -12 148 -9 155 2 3 6 2 10 -4 10 -26 0
-42 234 -21 312 14 48 191 324 236 367 44 41 35 53 -37 49 l-53 -3 -2 -40 c-1
-31 -21 -72 -86 -179 -46 -77 -89 -141 -95 -143 -6 -2 -24 17 -40 44 -15 26
-58 97 -95 157 -42 68 -68 120 -68 138 l0 28 -69 0 c-39 0 -72 -4 -76 -10z"/>
<path d="M2502 3278 c-7 -7 -12 -18 -12 -25 0 -7 -4 -21 -9 -31 -13 -26 -22
-47 -131 -322 -116 -292 -117 -293 -147 -326 -13 -14 -23 -27 -23 -30 0 -2 29
-4 65 -4 l65 0 -6 28 c-5 26 5 64 43 169 32 85 29 84 167 81 l121 -3 47 -110
c26 -60 47 -122 47 -137 1 -28 1 -28 76 -28 41 0 75 2 75 5 0 2 -11 15 -25 29
-29 29 -67 109 -150 311 -38 91 -47 114 -82 195 -11 25 -33 77 -48 115 -40 97
-49 107 -73 83z m46 -229 c59 -151 67 -180 51 -190 -8 -5 -53 -9 -101 -9 -107
0 -109 4 -67 120 17 47 38 104 46 128 8 24 20 41 27 39 6 -2 26 -41 44 -88z"/>
<path d="M2957 3284 c-4 -5 10 -26 32 -48 49 -51 220 -317 239 -371 18 -51 13
-278 -5 -297 -7 -6 -13 -16 -13 -20 0 -9 144 -11 153 -2 3 4 -2 18 -11 32 -13
20 -17 51 -17 156 0 119 2 135 24 175 46 87 188 297 225 333 42 41 36 48 -45
48 l-49 0 0 -38 c0 -29 -18 -68 -88 -181 -48 -80 -92 -146 -98 -148 -5 -2 -39
45 -74 103 -109 180 -129 217 -127 239 2 18 -4 20 -68 23 -39 1 -74 0 -78 -4z"/>
<path d="M4011 3268 c-53 -134 -223 -558 -230 -573 -5 -11 -18 -41 -30 -67
-11 -25 -29 -53 -41 -61 -29 -20 -15 -27 52 -27 57 0 58 1 52 24 -6 25 55 216
78 243 8 10 39 13 132 11 l120 -3 17 -35 c31 -62 82 -194 84 -215 1 -17 10
-20 65 -23 88 -4 99 2 61 34 -18 14 -40 45 -50 68 -22 47 -132 309 -185 440
-87 212 -104 236 -125 184z m22 -150 c39 -87 88 -230 85 -245 -3 -16 -16 -18
-98 -18 -92 0 -95 1 -98 23 -3 22 4 50 29 107 4 11 15 40 23 65 15 48 37 100
42 100 2 0 10 -15 17 -32z"/>
<path d="M6116 3282 c-3 -5 1 -23 9 -38 12 -24 15 -80 15 -309 0 -254 -4 -300
-25 -372 -7 -22 -5 -23 67 -23 81 0 97 6 70 26 -15 11 -17 31 -17 151 l0 138
67 3 c80 3 71 10 196 -151 105 -136 136 -160 213 -165 39 -3 59 -1 59 7 0 6
-4 11 -9 11 -27 0 -291 291 -291 320 0 5 19 30 41 56 76 88 97 170 60 242 -44
86 -91 104 -292 110 -100 3 -159 1 -163 -6z m291 -47 c16 -9 40 -33 53 -53 22
-31 25 -47 25 -121 0 -73 -3 -91 -23 -118 -12 -17 -38 -37 -59 -44 -44 -14
-152 -6 -164 13 -5 7 -9 84 -9 170 0 139 2 158 18 168 24 15 124 6 159 -15z"/>
<path d="M7724 3279 c-3 -6 -1 -14 5 -18 14 -9 11 -675 -3 -703 -7 -16 -1 -18
69 -18 70 0 76 2 70 18 -23 54 -34 316 -15 353 10 18 23 19 211 19 119 0 208
-4 220 -10 17 -10 19 -22 19 -123 0 -106 -10 -201 -25 -239 -6 -16 1 -18 69
-18 42 0 76 1 76 3 0 1 -7 24 -15 51 -22 73 -22 614 0 657 20 37 11 41 -71 37
-47 -2 -58 -6 -55 -18 15 -59 20 -108 21 -192 0 -86 -2 -98 -19 -108 -12 -6
-101 -10 -220 -10 -195 0 -201 1 -212 22 -15 28 -8 260 9 281 10 12 9 16 -4
21 -27 10 -122 7 -130 -5z"/>
<path d="M9565 3280 c-4 -6 -1 -18 7 -27 10 -12 14 -79 16 -287 3 -245 -2
-336 -23 -403 -7 -22 -6 -23 69 -23 76 0 87 5 64 28 -18 18 -25 332 -8 332 7
0 73 -63 147 -140 74 -77 162 -158 195 -180 55 -36 66 -40 124 -40 63 0 85 12
42 24 -31 7 -93 60 -269 227 -81 77 -149 149 -152 160 -4 15 26 49 133 151 76
72 153 140 170 151 40 25 25 37 -47 37 -51 0 -53 -1 -53 -27 0 -21 -30 -56
-137 -165 -75 -76 -143 -138 -151 -138 -11 0 -13 26 -9 143 2 78 6 151 8 162
4 18 -2 20 -58 23 -36 2 -64 -1 -68 -8z"/>
</g>
</svg>
